<svg xmlns="http://www.w3.org/2000/svg" xmlns:xlink="http://www.w3.org/1999/xlink" width="500" zoomAndPan="magnify" viewBox="0 0 375 374.999991" height="500" preserveAspectRatio="xMidYMid meet" version="1.0"><defs><clipPath id="86613e835f"><path d="M 273 154 L 337.5 154 L 337.5 219 L 273 219 Z M 273 154 " clip-rule="nonzero"/></clipPath></defs><path fill="#ffa726" d="M 249.074219 206.019531 C 251.390625 200.925781 252.777344 194.90625 253.242188 189.351562 C 254.167969 175.464844 249.074219 161.574219 239.351562 151.851562 C 220.371094 132.871094 189.816406 132.871094 170.832031 151.851562 C 151.851562 170.832031 151.851562 201.390625 170.832031 220.371094 C 174.535156 224.074219 178.703125 227.316406 183.332031 229.628906 C 190.277344 232.871094 197.683594 234.722656 205.554688 234.722656 C 206.480469 234.722656 207.40625 234.722656 208.332031 234.722656 C 214.816406 234.257812 221.296875 232.40625 227.316406 229.628906 C 231.945312 227.316406 236.109375 224.074219 239.816406 220.371094 C 243.519531 216.203125 246.757812 211.109375 249.074219 206.019531 Z M 204.628906 157.40625 C 212.5 157.40625 218.980469 163.890625 218.980469 171.757812 C 218.980469 179.628906 212.5 186.109375 204.628906 186.109375 C 196.757812 186.109375 190.277344 179.628906 190.277344 171.757812 C 190.277344 163.890625 196.757812 157.40625 204.628906 157.40625 Z M 230.09375 205.554688 C 227.316406 208.332031 224.074219 210.648438 220.832031 212.5 C 216.203125 214.816406 211.574219 216.203125 206.945312 216.203125 C 206.019531 216.203125 205.554688 216.203125 204.628906 216.203125 C 199.074219 216.203125 193.519531 214.816406 188.425781 212.5 C 185.183594 210.648438 181.945312 208.796875 179.167969 205.554688 C 179.167969 195.371094 187.5 187.035156 198.148438 187.035156 L 204.628906 200 L 211.109375 187.035156 C 221.757812 187.035156 230.09375 195.371094 230.09375 205.554688 Z M 230.09375 205.554688 " fill-opacity="1" fill-rule="nonzero"/><path fill="#ffa726" d="M 261.574219 258.796875 L 239.351562 229.167969 C 237.5 230.554688 235.648438 231.945312 233.796875 233.332031 L 255.554688 262.964844 C 254.628906 263.890625 253.703125 264.816406 252.316406 265.742188 C 237.035156 281.019531 237.035156 305.554688 252.316406 320.832031 C 255.09375 323.609375 258.796875 326.390625 262.035156 328.242188 C 267.59375 331.019531 273.609375 332.40625 279.628906 332.40625 C 280.554688 332.40625 281.019531 332.40625 281.945312 332.40625 C 287.035156 331.945312 292.128906 330.554688 297.222656 328.242188 C 300.925781 326.390625 304.167969 324.074219 306.945312 321.296875 C 306.945312 321.296875 307.40625 321.296875 307.40625 320.832031 C 313.890625 313.890625 318.054688 305.09375 318.519531 295.832031 C 319.445312 284.722656 315.277344 273.609375 307.40625 265.742188 C 295.371094 252.777344 276.390625 250.464844 261.574219 258.796875 Z M 280.554688 268.980469 C 286.109375 268.980469 290.742188 273.609375 290.742188 279.167969 C 290.742188 284.722656 286.109375 289.351562 280.554688 289.351562 C 275 289.351562 270.371094 284.722656 270.371094 279.167969 C 269.90625 273.609375 274.535156 268.980469 280.554688 268.980469 Z M 302.777344 307.40625 C 300.464844 309.722656 297.683594 312.035156 294.445312 313.425781 C 290.742188 315.277344 286.574219 316.667969 281.945312 316.667969 C 281.480469 316.667969 280.554688 316.667969 280.09375 316.667969 C 275 316.667969 270.371094 315.742188 265.742188 313.425781 C 262.964844 312.035156 260.183594 310.183594 257.40625 307.40625 C 257.40625 298.148438 264.816406 291.203125 274.074219 291.203125 L 280.09375 302.777344 L 286.109375 291.203125 C 295.371094 291.203125 302.777344 298.609375 302.777344 307.40625 Z M 302.777344 307.40625 " fill-opacity="1" fill-rule="nonzero"/><path fill="#ffa726" d="M 150 247.222656 C 132.40625 247.222656 118.054688 261.574219 118.054688 279.167969 C 118.054688 296.757812 132.40625 311.109375 150 311.109375 C 167.59375 311.109375 181.945312 296.757812 181.945312 279.167969 C 181.945312 261.574219 167.59375 247.222656 150 247.222656 Z M 150 247.222656 " fill-opacity="1" fill-rule="nonzero"/><g clip-path="url(#86613e835f)"><path fill="#ffa726" d="M 305.554688 154.628906 C 287.964844 154.628906 273.609375 168.980469 273.609375 186.574219 C 273.609375 204.167969 287.964844 218.519531 305.554688 218.519531 C 323.148438 218.519531 337.5 204.167969 337.5 186.574219 C 337.5 168.980469 323.148438 154.628906 305.554688 154.628906 Z M 305.554688 154.628906 " fill-opacity="1" fill-rule="nonzero"/></g><path fill="#ffa726" d="M 156.019531 121.296875 C 173.609375 121.296875 187.964844 106.945312 187.964844 89.351562 C 187.964844 71.757812 173.609375 57.40625 156.019531 57.40625 C 138.425781 57.40625 124.074219 71.757812 124.074219 89.351562 C 124.074219 106.945312 138.425781 121.296875 156.019531 121.296875 Z M 156.019531 121.296875 " fill-opacity="1" fill-rule="nonzero"/><path fill="#ffa726" d="M 239.351562 142.59375 L 258.332031 117.59375 C 259.722656 118.519531 261.574219 119.445312 262.964844 120.371094 C 268.519531 123.148438 274.535156 124.535156 280.554688 124.535156 C 281.480469 124.535156 281.945312 124.535156 282.871094 124.535156 C 287.964844 124.074219 293.054688 122.683594 298.148438 120.371094 C 301.851562 118.519531 305.09375 116.203125 307.871094 113.425781 C 307.871094 113.425781 308.332031 113.425781 308.332031 112.964844 C 314.816406 106.019531 318.980469 97.222656 319.445312 87.964844 C 320.371094 76.851562 316.203125 65.742188 308.332031 57.871094 C 293.054688 42.59375 268.519531 42.59375 253.242188 57.871094 C 237.964844 73.148438 237.964844 97.683594 253.242188 112.964844 L 233.796875 138.425781 C 235.648438 139.816406 237.5 141.203125 239.351562 142.59375 Z M 280.554688 61.574219 C 286.109375 61.574219 290.742188 66.203125 290.742188 71.757812 C 290.742188 77.316406 286.109375 81.945312 280.554688 81.945312 C 275 81.945312 270.371094 77.316406 270.371094 71.757812 C 270.371094 66.203125 274.535156 61.574219 280.554688 61.574219 Z M 274.535156 84.257812 L 280.554688 95.832031 L 286.574219 84.257812 C 295.832031 84.257812 303.242188 91.667969 303.242188 100.464844 C 300.925781 102.777344 298.148438 105.09375 294.90625 106.480469 C 291.203125 108.332031 287.035156 109.722656 282.40625 109.722656 C 281.945312 109.722656 281.019531 109.722656 280.554688 109.722656 C 275.464844 109.722656 270.832031 108.796875 266.203125 106.480469 C 263.425781 105.09375 260.648438 103.242188 257.871094 100.464844 C 257.871094 91.203125 265.277344 84.257812 274.535156 84.257812 Z M 274.535156 84.257812 " fill-opacity="1" fill-rule="nonzero"/><path fill="#ffa726" d="M 149.535156 190.277344 C 149.535156 187.964844 149.535156 185.648438 149.535156 183.332031 L 118.980469 183.332031 C 118.519531 173.609375 114.816406 163.890625 107.871094 156.945312 C 92.59375 141.667969 68.054688 141.667969 52.777344 156.945312 C 37.5 172.222656 37.5 196.757812 52.777344 212.035156 C 55.554688 214.816406 59.257812 217.59375 62.5 219.445312 C 68.054688 222.222656 74.074219 223.609375 80.09375 223.609375 C 81.019531 223.609375 81.480469 223.609375 82.40625 223.609375 C 87.5 223.148438 92.59375 221.757812 97.683594 219.445312 C 101.390625 217.59375 104.628906 215.277344 107.40625 212.5 C 107.40625 212.5 107.871094 212.5 107.871094 212.035156 C 113.890625 206.019531 117.59375 198.609375 118.519531 190.742188 L 149.535156 190.742188 Z M 80.09375 160.183594 C 85.648438 160.183594 90.277344 164.816406 90.277344 170.371094 C 90.277344 175.925781 85.648438 180.554688 80.09375 180.554688 C 74.535156 180.554688 69.90625 175.925781 69.90625 170.371094 C 69.90625 164.816406 74.535156 160.183594 80.09375 160.183594 Z M 102.316406 199.074219 C 100 201.390625 97.222656 203.703125 93.980469 205.09375 C 90.277344 206.945312 86.109375 208.332031 81.480469 208.332031 C 81.019531 208.332031 80.09375 208.332031 79.628906 208.332031 C 74.535156 208.332031 69.90625 207.40625 65.277344 205.09375 C 62.5 203.703125 59.722656 201.851562 56.945312 199.074219 C 56.945312 189.816406 64.351562 182.871094 73.609375 182.871094 L 80.09375 193.980469 L 86.109375 182.40625 C 94.90625 182.40625 102.316406 189.816406 102.316406 199.074219 C 102.316406 198.609375 102.316406 199.074219 102.316406 199.074219 Z M 102.316406 199.074219 " fill-opacity="1" fill-rule="nonzero"/></svg>