<svg xmlns="http://www.w3.org/2000/svg" xmlns:xlink="http://www.w3.org/1999/xlink" width="500" zoomAndPan="magnify" viewBox="0 0 375 374.999991" height="500" preserveAspectRatio="xMidYMid meet" version="1.0"><defs><g/><clipPath id="9ed5d528fc"><path d="M 109 196 L 137 196 L 137 230.621094 L 109 230.621094 Z M 109 196 " clip-rule="nonzero"/></clipPath><clipPath id="438442d4a1"><path d="M 122 172 L 142.820312 172 L 142.820312 194 L 122 194 Z M 122 172 " clip-rule="nonzero"/></clipPath></defs><path fill="#ffa726" d="M 114.050781 189.175781 C 114.8125 187.503906 115.269531 185.527344 115.421875 183.703125 C 115.722656 179.140625 114.050781 174.582031 110.859375 171.386719 C 104.625 165.152344 94.589844 165.152344 88.359375 171.386719 C 82.125 177.621094 82.125 187.65625 88.359375 193.890625 C 89.574219 195.105469 90.941406 196.167969 92.460938 196.929688 C 94.742188 197.992188 97.175781 198.601562 99.761719 198.601562 C 100.0625 198.601562 100.367188 198.601562 100.671875 198.601562 C 102.800781 198.449219 104.929688 197.839844 106.90625 196.929688 C 108.425781 196.167969 109.792969 195.105469 111.011719 193.890625 C 112.226562 192.519531 113.292969 190.847656 114.050781 189.175781 Z M 99.457031 173.210938 C 102.039062 173.210938 104.167969 175.339844 104.167969 177.925781 C 104.167969 180.507812 102.039062 182.636719 99.457031 182.636719 C 96.871094 182.636719 94.742188 180.507812 94.742188 177.925781 C 94.742188 175.339844 96.871094 173.210938 99.457031 173.210938 Z M 107.816406 189.023438 C 106.90625 189.9375 105.839844 190.695312 104.777344 191.304688 C 103.257812 192.0625 101.738281 192.519531 100.214844 192.519531 C 99.914062 192.519531 99.761719 192.519531 99.457031 192.519531 C 97.632812 192.519531 95.808594 192.0625 94.136719 191.304688 C 93.070312 190.695312 92.007812 190.089844 91.09375 189.023438 C 91.09375 185.679688 93.832031 182.941406 97.328125 182.941406 L 99.457031 187.199219 L 101.585938 182.941406 C 105.082031 182.941406 107.816406 185.679688 107.816406 189.023438 Z M 107.816406 189.023438 " fill-opacity="1" fill-rule="nonzero"/><g clip-path="url(#9ed5d528fc)"><path fill="#ffa726" d="M 118.15625 206.507812 L 110.859375 196.777344 C 110.25 197.234375 109.644531 197.691406 109.035156 198.144531 L 116.179688 207.875 C 115.875 208.179688 115.570312 208.484375 115.117188 208.789062 C 110.097656 213.804688 110.097656 221.863281 115.117188 226.878906 C 116.027344 227.792969 117.246094 228.707031 118.308594 229.3125 C 120.132812 230.226562 122.109375 230.679688 124.085938 230.679688 C 124.390625 230.679688 124.542969 230.679688 124.847656 230.679688 C 126.519531 230.53125 128.191406 230.074219 129.863281 229.3125 C 131.078125 228.707031 132.144531 227.945312 133.054688 227.03125 C 133.054688 227.03125 133.207031 227.03125 133.207031 226.878906 C 135.335938 224.601562 136.707031 221.710938 136.855469 218.671875 C 137.160156 215.023438 135.792969 211.371094 133.207031 208.789062 C 129.253906 204.53125 123.023438 203.769531 118.15625 206.507812 Z M 124.390625 209.851562 C 126.214844 209.851562 127.734375 211.371094 127.734375 213.199219 C 127.734375 215.023438 126.214844 216.542969 124.390625 216.542969 C 122.566406 216.542969 121.046875 215.023438 121.046875 213.199219 C 120.894531 211.371094 122.414062 209.851562 124.390625 209.851562 Z M 131.6875 222.472656 C 130.929688 223.230469 130.015625 223.992188 128.953125 224.449219 C 127.734375 225.054688 126.367188 225.511719 124.847656 225.511719 C 124.695312 225.511719 124.390625 225.511719 124.238281 225.511719 C 122.566406 225.511719 121.046875 225.207031 119.523438 224.449219 C 118.613281 223.992188 117.699219 223.382812 116.789062 222.472656 C 116.789062 219.429688 119.222656 217.152344 122.261719 217.152344 L 124.238281 220.953125 L 126.214844 217.152344 C 129.253906 217.152344 131.6875 219.582031 131.6875 222.472656 Z M 131.6875 222.472656 " fill-opacity="1" fill-rule="nonzero"/></g><path fill="#ffa726" d="M 81.515625 202.707031 C 75.738281 202.707031 71.027344 207.421875 71.027344 213.199219 C 71.027344 218.976562 75.738281 223.6875 81.515625 223.6875 C 87.292969 223.6875 92.007812 218.976562 92.007812 213.199219 C 92.007812 207.421875 87.292969 202.707031 81.515625 202.707031 Z M 81.515625 202.707031 " fill-opacity="1" fill-rule="nonzero"/><g clip-path="url(#438442d4a1)"><path fill="#ffa726" d="M 132.601562 172.300781 C 126.824219 172.300781 122.109375 177.011719 122.109375 182.789062 C 122.109375 188.566406 126.824219 193.28125 132.601562 193.28125 C 138.378906 193.28125 143.089844 188.566406 143.089844 182.789062 C 143.089844 177.011719 138.378906 172.300781 132.601562 172.300781 Z M 132.601562 172.300781 " fill-opacity="1" fill-rule="nonzero"/></g><path fill="#ffa726" d="M 83.492188 161.351562 C 89.269531 161.351562 93.984375 156.640625 93.984375 150.863281 C 93.984375 145.085938 89.269531 140.371094 83.492188 140.371094 C 77.714844 140.371094 73 145.085938 73 150.863281 C 73 156.640625 77.714844 161.351562 83.492188 161.351562 Z M 83.492188 161.351562 " fill-opacity="1" fill-rule="nonzero"/><path fill="#ffa726" d="M 110.859375 168.347656 L 117.09375 160.136719 C 117.546875 160.441406 118.15625 160.746094 118.613281 161.050781 C 120.4375 161.960938 122.414062 162.417969 124.390625 162.417969 C 124.695312 162.417969 124.847656 162.417969 125.148438 162.417969 C 126.824219 162.265625 128.496094 161.808594 130.167969 161.050781 C 131.382812 160.441406 132.449219 159.679688 133.359375 158.769531 C 133.359375 158.769531 133.511719 158.769531 133.511719 158.617188 C 135.640625 156.335938 137.007812 153.445312 137.160156 150.40625 C 137.464844 146.757812 136.097656 143.109375 133.511719 140.523438 C 128.496094 135.507812 120.4375 135.507812 115.421875 140.523438 C 110.402344 145.542969 110.402344 153.597656 115.421875 158.617188 L 109.035156 166.976562 C 109.644531 167.433594 110.25 167.890625 110.859375 168.347656 Z M 124.390625 141.742188 C 126.214844 141.742188 127.734375 143.261719 127.734375 145.085938 C 127.734375 146.910156 126.214844 148.429688 124.390625 148.429688 C 122.566406 148.429688 121.046875 146.910156 121.046875 145.085938 C 121.046875 143.261719 122.414062 141.742188 124.390625 141.742188 Z M 122.414062 149.191406 L 124.390625 152.992188 L 126.367188 149.191406 C 129.40625 149.191406 131.839844 151.621094 131.839844 154.511719 C 131.078125 155.273438 130.167969 156.03125 129.101562 156.488281 C 127.886719 157.097656 126.519531 157.550781 125 157.550781 C 124.847656 157.550781 124.542969 157.550781 124.390625 157.550781 C 122.71875 157.550781 121.199219 157.25 119.675781 156.488281 C 118.765625 156.03125 117.851562 155.421875 116.941406 154.511719 C 116.941406 151.472656 119.371094 149.191406 122.414062 149.191406 Z M 122.414062 149.191406 " fill-opacity="1" fill-rule="nonzero"/><path fill="#ffa726" d="M 81.363281 184.007812 C 81.363281 183.246094 81.363281 182.484375 81.363281 181.726562 L 71.328125 181.726562 C 71.175781 178.53125 69.960938 175.339844 67.679688 173.058594 C 62.664062 168.042969 54.605469 168.042969 49.589844 173.058594 C 44.570312 178.078125 44.570312 186.136719 49.589844 191.152344 C 50.5 192.0625 51.71875 192.976562 52.78125 193.585938 C 54.605469 194.496094 56.582031 194.953125 58.558594 194.953125 C 58.863281 194.953125 59.015625 194.953125 59.320312 194.953125 C 60.992188 194.800781 62.664062 194.34375 64.335938 193.585938 C 65.550781 192.976562 66.617188 192.214844 67.527344 191.304688 C 67.527344 191.304688 67.679688 191.304688 67.679688 191.152344 C 69.65625 189.175781 70.875 186.742188 71.175781 184.160156 L 81.363281 184.160156 Z M 58.558594 174.125 C 60.382812 174.125 61.902344 175.644531 61.902344 177.46875 C 61.902344 179.292969 60.382812 180.8125 58.558594 180.8125 C 56.734375 180.8125 55.214844 179.292969 55.214844 177.46875 C 55.214844 175.644531 56.734375 174.125 58.558594 174.125 Z M 65.855469 186.894531 C 65.097656 187.65625 64.183594 188.414062 63.121094 188.871094 C 61.902344 189.480469 60.535156 189.9375 59.015625 189.9375 C 58.863281 189.9375 58.558594 189.9375 58.40625 189.9375 C 56.734375 189.9375 55.214844 189.632812 53.691406 188.871094 C 52.78125 188.414062 51.867188 187.808594 50.957031 186.894531 C 50.957031 183.855469 53.390625 181.574219 56.429688 181.574219 L 58.558594 185.222656 L 60.535156 181.421875 C 63.421875 181.421875 65.855469 183.855469 65.855469 186.894531 C 65.855469 186.742188 65.855469 186.894531 65.855469 186.894531 Z M 65.855469 186.894531 " fill-opacity="1" fill-rule="nonzero"/><g fill="#ffffff" fill-opacity="1"><g transform="translate(155.684116, 179.276472)"><g><path d="M 9.175781 0.410156 C 13.441406 0.410156 16.972656 -1.734375 16.972656 -6.175781 C 16.972656 -10.796875 13.03125 -11.765625 9.914062 -12.558594 C 7.707031 -13.089844 5.941406 -13.53125 5.941406 -14.972656 C 5.941406 -16.324219 7.382812 -16.941406 8.824219 -16.941406 C 10.5 -16.941406 11.972656 -16.121094 11.972656 -14.324219 L 16.355469 -14.324219 C 16.355469 -18.441406 13.679688 -20.972656 8.941406 -20.972656 C 4.382812 -20.972656 1.472656 -18.738281 1.472656 -14.796875 C 1.472656 -10.355469 5.234375 -9.441406 8.355469 -8.675781 C 10.589844 -8.175781 12.472656 -7.734375 12.472656 -6.117188 C 12.472656 -4.589844 10.824219 -3.707031 9.148438 -3.707031 C 7.324219 -3.707031 5.675781 -4.675781 5.675781 -6.648438 L 1.175781 -6.648438 C 1.175781 -2.234375 4.441406 0.410156 9.175781 0.410156 Z M 9.175781 0.410156 "/></g></g></g><g fill="#ffffff" fill-opacity="1"><g transform="translate(173.891379, 179.276472)"><g><path d="M 9.589844 0.46875 C 14.5 0.46875 18.179688 -3.148438 18.179688 -7.941406 C 18.179688 -12.738281 14.5 -16.324219 9.589844 -16.324219 C 4.675781 -16.324219 1 -12.738281 1 -7.941406 C 1 -3.148438 4.675781 0.46875 9.589844 0.46875 Z M 9.589844 -3.589844 C 7.117188 -3.589844 5.355469 -5.355469 5.355469 -7.941406 C 5.355469 -10.5 7.117188 -12.296875 9.589844 -12.296875 C 12.058594 -12.296875 13.824219 -10.5 13.824219 -7.941406 C 13.824219 -5.355469 12.058594 -3.589844 9.589844 -3.589844 Z M 9.589844 -3.589844 "/></g></g></g><g fill="#ffffff" fill-opacity="1"><g transform="translate(193.098718, 179.276472)"><g><path d="M 9.441406 0.46875 C 13.589844 0.46875 16.855469 -2.234375 17.589844 -6.234375 L 13.265625 -6.234375 C 12.53125 -4.53125 11.175781 -3.589844 9.441406 -3.589844 C 7.148438 -3.589844 5.355469 -5.5 5.355469 -7.941406 C 5.355469 -10.414062 7.117188 -12.296875 9.441406 -12.296875 C 11.148438 -12.296875 12.589844 -11.355469 13.265625 -9.796875 L 17.53125 -9.796875 C 16.765625 -13.707031 13.589844 -16.324219 9.472656 -16.324219 C 4.648438 -16.324219 1 -12.738281 1 -7.972656 C 1 -3.207031 4.648438 0.46875 9.441406 0.46875 Z M 9.441406 0.46875 "/></g></g></g><g fill="#ffffff" fill-opacity="1"><g transform="translate(211.48246, 179.276472)"><g><path d="M 2.058594 -18.003906 L 6.324219 -18.003906 L 6.324219 -21.972656 L 2.058594 -21.972656 Z M 2.058594 0 L 6.355469 0 L 6.355469 -15.882812 L 2.058594 -15.882812 Z M 2.058594 0 "/></g></g></g><g fill="#ffffff" fill-opacity="1"><g transform="translate(219.894863, 179.276472)"><g><path d="M 15 -15.882812 L 14.558594 -14.382812 C 13.179688 -15.589844 11.382812 -16.324219 9.324219 -16.324219 C 4.558594 -16.324219 1 -12.738281 1 -7.941406 C 1 -3.148438 4.558594 0.46875 9.324219 0.46875 C 11.355469 0.46875 13.117188 -0.234375 14.472656 -1.441406 L 14.855469 0 L 18.207031 0 L 18.207031 -15.882812 Z M 9.675781 -3.589844 C 7.175781 -3.589844 5.355469 -5.472656 5.355469 -7.941406 C 5.355469 -10.441406 7.175781 -12.296875 9.675781 -12.296875 C 12.179688 -12.296875 14 -10.441406 14 -7.941406 C 14 -5.441406 12.179688 -3.589844 9.675781 -3.589844 Z M 9.675781 -3.589844 "/></g></g></g><g fill="#ffffff" fill-opacity="1"><g transform="translate(240.190523, 179.276472)"><g><path d="M 2.058594 0 L 6.355469 0 L 6.355469 -21.589844 L 2.058594 -21.589844 Z M 2.058594 0 "/></g></g></g><g fill="#ffffff" fill-opacity="1"><g transform="translate(248.602926, 179.276472)"><g><path d="M 9.175781 0.410156 C 13.441406 0.410156 16.972656 -1.734375 16.972656 -6.175781 C 16.972656 -10.796875 13.03125 -11.765625 9.914062 -12.558594 C 7.707031 -13.089844 5.941406 -13.53125 5.941406 -14.972656 C 5.941406 -16.324219 7.382812 -16.941406 8.824219 -16.941406 C 10.5 -16.941406 11.972656 -16.121094 11.972656 -14.324219 L 16.355469 -14.324219 C 16.355469 -18.441406 13.679688 -20.972656 8.941406 -20.972656 C 4.382812 -20.972656 1.472656 -18.738281 1.472656 -14.796875 C 1.472656 -10.355469 5.234375 -9.441406 8.355469 -8.675781 C 10.589844 -8.175781 12.472656 -7.734375 12.472656 -6.117188 C 12.472656 -4.589844 10.824219 -3.707031 9.148438 -3.707031 C 7.324219 -3.707031 5.675781 -4.675781 5.675781 -6.648438 L 1.175781 -6.648438 C 1.175781 -2.234375 4.441406 0.410156 9.175781 0.410156 Z M 9.175781 0.410156 "/></g></g></g><g fill="#ffffff" fill-opacity="1"><g transform="translate(266.810189, 179.276472)"><g><path d="M 13.03125 -15.882812 L 9.058594 -6.089844 L 4.824219 -15.882812 L 0.148438 -15.882812 L 6.882812 -1.207031 L 6.824219 -1.089844 C 5.855469 1.324219 5.324219 1.882812 3.234375 1.882812 L 1.765625 1.882812 L 1.765625 5.734375 L 3.53125 5.734375 C 7.089844 5.734375 8.765625 4.117188 10.675781 -0.207031 L 17.589844 -15.882812 Z M 13.03125 -15.882812 "/></g></g></g><g fill="#ffffff" fill-opacity="1"><g transform="translate(284.517413, 179.276472)"><g><path d="M 11.089844 -16.238281 C 8.941406 -16.238281 7.03125 -15.324219 5.824219 -13.914062 L 5 -15.882812 L 2.058594 -15.882812 L 2.058594 0 L 6.355469 0 L 6.355469 -8.324219 C 6.355469 -10.882812 7.707031 -12.472656 9.914062 -12.472656 C 11.765625 -12.472656 12.679688 -11.324219 12.679688 -8.914062 L 12.679688 0 L 16.972656 0 L 16.972656 -9.617188 C 16.972656 -13.648438 14.707031 -16.238281 11.089844 -16.238281 Z M 11.089844 -16.238281 "/></g></g></g><g fill="#ffffff" fill-opacity="1"><g transform="translate(303.371782, 179.276472)"><g><path d="M 9.441406 0.46875 C 13.589844 0.46875 16.855469 -2.234375 17.589844 -6.234375 L 13.265625 -6.234375 C 12.53125 -4.53125 11.175781 -3.589844 9.441406 -3.589844 C 7.148438 -3.589844 5.355469 -5.5 5.355469 -7.941406 C 5.355469 -10.414062 7.117188 -12.296875 9.441406 -12.296875 C 11.148438 -12.296875 12.589844 -11.355469 13.265625 -9.796875 L 17.53125 -9.796875 C 16.765625 -13.707031 13.589844 -16.324219 9.472656 -16.324219 C 4.648438 -16.324219 1 -12.738281 1 -7.972656 C 1 -3.207031 4.648438 0.46875 9.441406 0.46875 Z M 9.441406 0.46875 "/></g></g></g><g fill="#ffffff" fill-opacity="1"><g transform="translate(157.650901, 198.114363)"><g><path d="M 2.570312 0.117188 C 3.761719 0.117188 4.75 -0.484375 4.75 -1.730469 C 4.75 -3.019531 3.648438 -3.292969 2.773438 -3.515625 C 2.15625 -3.664062 1.664062 -3.785156 1.664062 -4.191406 C 1.664062 -4.570312 2.066406 -4.742188 2.46875 -4.742188 C 2.9375 -4.742188 3.351562 -4.511719 3.351562 -4.007812 L 4.578125 -4.007812 C 4.578125 -5.160156 3.828125 -5.871094 2.503906 -5.871094 C 1.226562 -5.871094 0.410156 -5.246094 0.410156 -4.140625 C 0.410156 -2.898438 1.464844 -2.644531 2.339844 -2.429688 C 2.964844 -2.289062 3.492188 -2.164062 3.492188 -1.710938 C 3.492188 -1.285156 3.03125 -1.039062 2.558594 -1.039062 C 2.050781 -1.039062 1.589844 -1.308594 1.589844 -1.859375 L 0.328125 -1.859375 C 0.328125 -0.625 1.242188 0.117188 2.570312 0.117188 Z M 2.570312 0.117188 "/></g></g></g><g fill="#ffffff" fill-opacity="1"><g transform="translate(164.401793, 198.114363)"><g><path d="M 1.902344 -1.152344 L 1.902344 -2.339844 L 3.902344 -2.339844 L 3.902344 -3.464844 L 1.902344 -3.464844 L 1.902344 -4.609375 L 4.117188 -4.609375 L 4.117188 -5.761719 L 0.660156 -5.761719 L 0.660156 0 L 4.207031 0 L 4.207031 -1.152344 Z M 1.902344 -1.152344 "/></g></g></g><g fill="#ffffff" fill-opacity="1"><g transform="translate(170.658719, 198.114363)"><g><path d="M 4.480469 0 L 5.835938 0 L 3.507812 -5.761719 L 2.328125 -5.761719 L 0.0664062 0 L 1.390625 0 L 1.785156 -1.085938 L 4.074219 -1.085938 Z M 2.929688 -4.238281 L 3.6875 -2.171875 L 2.171875 -2.171875 Z M 2.929688 -4.238281 "/></g></g></g><g fill="#ffffff" fill-opacity="1"><g transform="translate(178.224656, 198.114363)"><g><path d="M 7.714844 0 L 6.824219 -5.761719 L 5.574219 -5.761719 L 4.007812 -2.222656 L 2.445312 -5.761719 L 1.203125 -5.761719 L 0.296875 0 L 1.5625 0 L 2.132812 -3.753906 L 3.851562 -0.0078125 L 4.15625 -0.0078125 L 5.878906 -3.753906 L 6.445312 0 Z M 7.714844 0 "/></g></g></g><g fill="#ffffff" fill-opacity="1"><g transform="translate(187.906429, 198.114363)"><g><path d="M 1.902344 -1.152344 L 1.902344 -5.761719 L 0.660156 -5.761719 L 0.660156 0 L 4.117188 0 L 4.117188 -1.152344 Z M 1.902344 -1.152344 "/></g></g></g><g fill="#ffffff" fill-opacity="1"><g transform="translate(193.858732, 198.114363)"><g><path d="M 1.902344 -1.152344 L 1.902344 -2.339844 L 3.902344 -2.339844 L 3.902344 -3.464844 L 1.902344 -3.464844 L 1.902344 -4.609375 L 4.117188 -4.609375 L 4.117188 -5.761719 L 0.660156 -5.761719 L 0.660156 0 L 4.207031 0 L 4.207031 -1.152344 Z M 1.902344 -1.152344 "/></g></g></g><g fill="#ffffff" fill-opacity="1"><g transform="translate(200.115658, 198.114363)"><g><path d="M 2.570312 0.117188 C 3.761719 0.117188 4.75 -0.484375 4.75 -1.730469 C 4.75 -3.019531 3.648438 -3.292969 2.773438 -3.515625 C 2.15625 -3.664062 1.664062 -3.785156 1.664062 -4.191406 C 1.664062 -4.570312 2.066406 -4.742188 2.46875 -4.742188 C 2.9375 -4.742188 3.351562 -4.511719 3.351562 -4.007812 L 4.578125 -4.007812 C 4.578125 -5.160156 3.828125 -5.871094 2.503906 -5.871094 C 1.226562 -5.871094 0.410156 -5.246094 0.410156 -4.140625 C 0.410156 -2.898438 1.464844 -2.644531 2.339844 -2.429688 C 2.964844 -2.289062 3.492188 -2.164062 3.492188 -1.710938 C 3.492188 -1.285156 3.03125 -1.039062 2.558594 -1.039062 C 2.050781 -1.039062 1.589844 -1.308594 1.589844 -1.859375 L 0.328125 -1.859375 C 0.328125 -0.625 1.242188 0.117188 2.570312 0.117188 Z M 2.570312 0.117188 "/></g></g></g><g fill="#ffffff" fill-opacity="1"><g transform="translate(206.866549, 198.114363)"><g><path d="M 2.570312 0.117188 C 3.761719 0.117188 4.75 -0.484375 4.75 -1.730469 C 4.75 -3.019531 3.648438 -3.292969 2.773438 -3.515625 C 2.15625 -3.664062 1.664062 -3.785156 1.664062 -4.191406 C 1.664062 -4.570312 2.066406 -4.742188 2.46875 -4.742188 C 2.9375 -4.742188 3.351562 -4.511719 3.351562 -4.007812 L 4.578125 -4.007812 C 4.578125 -5.160156 3.828125 -5.871094 2.503906 -5.871094 C 1.226562 -5.871094 0.410156 -5.246094 0.410156 -4.140625 C 0.410156 -2.898438 1.464844 -2.644531 2.339844 -2.429688 C 2.964844 -2.289062 3.492188 -2.164062 3.492188 -1.710938 C 3.492188 -1.285156 3.03125 -1.039062 2.558594 -1.039062 C 2.050781 -1.039062 1.589844 -1.308594 1.589844 -1.859375 L 0.328125 -1.859375 C 0.328125 -0.625 1.242188 0.117188 2.570312 0.117188 Z M 2.570312 0.117188 "/></g></g></g><g fill="#ffffff" fill-opacity="1"><g transform="translate(213.617443, 198.114363)"><g/></g></g><g fill="#ffffff" fill-opacity="1"><g transform="translate(217.239873, 198.114363)"><g><path d="M 3.300781 0.132812 C 4.726562 0.132812 5.84375 -0.824219 6.109375 -2.246094 L 4.847656 -2.246094 C 4.644531 -1.523438 4.058594 -1.0625 3.300781 -1.0625 C 2.320312 -1.0625 1.589844 -1.835938 1.589844 -2.875 C 1.589844 -3.910156 2.320312 -4.691406 3.300781 -4.691406 C 4.027344 -4.691406 4.601562 -4.265625 4.839844 -3.589844 L 6.085938 -3.589844 C 5.820312 -4.957031 4.699219 -5.886719 3.300781 -5.886719 C 1.605469 -5.886719 0.320312 -4.585938 0.320312 -2.875 C 0.320312 -1.167969 1.605469 0.132812 3.300781 0.132812 Z M 3.300781 0.132812 "/></g></g></g><g fill="#ffffff" fill-opacity="1"><g transform="translate(225.242148, 198.114363)"><g><path d="M 3.390625 0.132812 C 5.144531 0.132812 6.453125 -1.160156 6.453125 -2.882812 C 6.453125 -4.59375 5.144531 -5.886719 3.390625 -5.886719 C 1.628906 -5.886719 0.3125 -4.585938 0.3125 -2.882812 C 0.3125 -1.167969 1.628906 0.132812 3.390625 0.132812 Z M 3.390625 -1.046875 C 2.363281 -1.046875 1.582031 -1.84375 1.582031 -2.882812 C 1.582031 -3.917969 2.363281 -4.710938 3.390625 -4.710938 C 4.421875 -4.710938 5.1875 -3.925781 5.1875 -2.882812 C 5.1875 -1.835938 4.421875 -1.046875 3.390625 -1.046875 Z M 3.390625 -1.046875 "/></g></g></g><g fill="#ffffff" fill-opacity="1"><g transform="translate(233.672532, 198.114363)"><g><path d="M 4.304688 -5.761719 L 4.304688 -2.246094 L 1.777344 -5.761719 L 0.660156 -5.761719 L 0.660156 0 L 1.878906 0 L 1.878906 -3.597656 L 4.488281 0 L 5.53125 0 L 5.53125 -5.761719 Z M 4.304688 -5.761719 "/></g></g></g><g fill="#ffffff" fill-opacity="1"><g transform="translate(241.518387, 198.114363)"><g><path d="M 4.625 -5.761719 L 0.171875 -5.761719 L 0.171875 -4.601562 L 1.777344 -4.601562 L 1.777344 0 L 3.019531 0 L 3.019531 -4.601562 L 4.625 -4.601562 Z M 4.625 -5.761719 "/></g></g></g><g fill="#ffffff" fill-opacity="1"><g transform="translate(247.98113, 198.114363)"><g><path d="M 1.902344 -1.152344 L 1.902344 -2.339844 L 3.902344 -2.339844 L 3.902344 -3.464844 L 1.902344 -3.464844 L 1.902344 -4.609375 L 4.117188 -4.609375 L 4.117188 -5.761719 L 0.660156 -5.761719 L 0.660156 0 L 4.207031 0 L 4.207031 -1.152344 Z M 1.902344 -1.152344 "/></g></g></g><g fill="#ffffff" fill-opacity="1"><g transform="translate(254.238058, 198.114363)"><g><path d="M 4.304688 -5.761719 L 4.304688 -2.246094 L 1.777344 -5.761719 L 0.660156 -5.761719 L 0.660156 0 L 1.878906 0 L 1.878906 -3.597656 L 4.488281 0 L 5.53125 0 L 5.53125 -5.761719 Z M 4.304688 -5.761719 "/></g></g></g><g fill="#ffffff" fill-opacity="1"><g transform="translate(262.083914, 198.114363)"><g><path d="M 4.625 -5.761719 L 0.171875 -5.761719 L 0.171875 -4.601562 L 1.777344 -4.601562 L 1.777344 0 L 3.019531 0 L 3.019531 -4.601562 L 4.625 -4.601562 Z M 4.625 -5.761719 "/></g></g></g><g fill="#ffffff" fill-opacity="1"><g transform="translate(268.546662, 198.114363)"><g/></g></g><g fill="#ffffff" fill-opacity="1"><g transform="translate(272.169092, 198.114363)"><g><path d="M 2.570312 0.117188 C 3.761719 0.117188 4.75 -0.484375 4.75 -1.730469 C 4.75 -3.019531 3.648438 -3.292969 2.773438 -3.515625 C 2.15625 -3.664062 1.664062 -3.785156 1.664062 -4.191406 C 1.664062 -4.570312 2.066406 -4.742188 2.46875 -4.742188 C 2.9375 -4.742188 3.351562 -4.511719 3.351562 -4.007812 L 4.578125 -4.007812 C 4.578125 -5.160156 3.828125 -5.871094 2.503906 -5.871094 C 1.226562 -5.871094 0.410156 -5.246094 0.410156 -4.140625 C 0.410156 -2.898438 1.464844 -2.644531 2.339844 -2.429688 C 2.964844 -2.289062 3.492188 -2.164062 3.492188 -1.710938 C 3.492188 -1.285156 3.03125 -1.039062 2.558594 -1.039062 C 2.050781 -1.039062 1.589844 -1.308594 1.589844 -1.859375 L 0.328125 -1.859375 C 0.328125 -0.625 1.242188 0.117188 2.570312 0.117188 Z M 2.570312 0.117188 "/></g></g></g><g fill="#ffffff" fill-opacity="1"><g transform="translate(278.919986, 198.114363)"><g><path d="M 4.074219 -5.761719 L 4.074219 -3.539062 L 1.902344 -3.539062 L 1.902344 -5.761719 L 0.660156 -5.761719 L 0.660156 0 L 1.902344 0 L 1.902344 -2.378906 L 4.074219 -2.378906 L 4.074219 0 L 5.316406 0 L 5.316406 -5.761719 Z M 4.074219 -5.761719 "/></g></g></g><g fill="#ffffff" fill-opacity="1"><g transform="translate(286.56002, 198.114363)"><g><path d="M 4.480469 0 L 5.835938 0 L 3.507812 -5.761719 L 2.328125 -5.761719 L 0.0664062 0 L 1.390625 0 L 1.785156 -1.085938 L 4.074219 -1.085938 Z M 2.929688 -4.238281 L 3.6875 -2.171875 L 2.171875 -2.171875 Z M 2.929688 -4.238281 "/></g></g></g><g fill="#ffffff" fill-opacity="1"><g transform="translate(294.125959, 198.114363)"><g><path d="M 3.828125 0 L 5.21875 0 L 3.945312 -2.171875 C 4.585938 -2.484375 4.996094 -3.09375 4.996094 -3.851562 C 4.996094 -4.964844 4.132812 -5.761719 2.980469 -5.761719 L 0.660156 -5.761719 L 0.660156 0 L 1.902344 0 L 1.902344 -1.960938 L 2.699219 -1.960938 Z M 1.902344 -4.609375 L 2.898438 -4.609375 C 3.425781 -4.609375 3.730469 -4.289062 3.730469 -3.859375 C 3.730469 -3.425781 3.425781 -3.113281 2.898438 -3.113281 L 1.902344 -3.113281 Z M 1.902344 -4.609375 "/></g></g></g><g fill="#ffffff" fill-opacity="1"><g transform="translate(301.222626, 198.114363)"><g><path d="M 0.660156 0 L 1.902344 0 L 1.902344 -5.761719 L 0.660156 -5.761719 Z M 0.660156 0 "/></g></g></g><g fill="#ffffff" fill-opacity="1"><g transform="translate(305.446052, 198.114363)"><g><path d="M 4.304688 -5.761719 L 4.304688 -2.246094 L 1.777344 -5.761719 L 0.660156 -5.761719 L 0.660156 0 L 1.878906 0 L 1.878906 -3.597656 L 4.488281 0 L 5.53125 0 L 5.53125 -5.761719 Z M 4.304688 -5.761719 "/></g></g></g><g fill="#ffffff" fill-opacity="1"><g transform="translate(313.291907, 198.114363)"><g><path d="M 3.1875 -3.003906 L 3.1875 -2.050781 L 4.914062 -2.050781 C 4.699219 -1.457031 4.050781 -1.0625 3.308594 -1.0625 C 2.273438 -1.0625 1.589844 -1.804688 1.589844 -2.875 C 1.589844 -3.953125 2.289062 -4.691406 3.308594 -4.691406 C 4.035156 -4.691406 4.644531 -4.304688 4.890625 -3.6875 L 6.175781 -3.6875 C 5.902344 -4.980469 4.71875 -5.886719 3.285156 -5.886719 C 1.582031 -5.886719 0.320312 -4.59375 0.320312 -2.875 C 0.320312 -1.144531 1.613281 0.132812 3.308594 0.132812 C 5.039062 0.132812 6.25 -1.203125 6.25 -3.003906 Z M 3.1875 -3.003906 "/></g></g></g></svg>