<svg xmlns="http://www.w3.org/2000/svg" xmlns:xlink="http://www.w3.org/1999/xlink" width="500" zoomAndPan="magnify" viewBox="0 0 375 374.999991" height="500" preserveAspectRatio="xMidYMid meet" version="1.0"><defs><g/><clipPath id="cd408aa99a"><path d="M 250 132 L 297.773438 132 L 297.773438 180 L 250 180 Z M 250 132 " clip-rule="nonzero"/></clipPath></defs><path fill="#ffa726" d="M 232.738281 170.734375 C 234.441406 166.992188 235.460938 162.570312 235.800781 158.488281 C 236.480469 148.28125 232.738281 138.074219 225.59375 130.929688 C 211.648438 116.984375 189.195312 116.984375 175.246094 130.929688 C 161.300781 144.878906 161.300781 167.332031 175.246094 181.277344 C 177.96875 184 181.03125 186.382812 184.433594 188.082031 C 189.535156 190.464844 194.980469 191.824219 200.761719 191.824219 C 201.441406 191.824219 202.121094 191.824219 202.804688 191.824219 C 207.566406 191.484375 212.328125 190.125 216.75 188.082031 C 220.152344 186.382812 223.214844 184 225.9375 181.277344 C 228.65625 178.21875 231.039062 174.476562 232.738281 170.734375 Z M 200.082031 135.015625 C 205.863281 135.015625 210.628906 139.777344 210.628906 145.558594 C 210.628906 151.34375 205.863281 156.105469 200.082031 156.105469 C 194.296875 156.105469 189.535156 151.34375 189.535156 145.558594 C 189.535156 139.777344 194.296875 135.015625 200.082031 135.015625 Z M 218.792969 170.394531 C 216.75 172.433594 214.371094 174.136719 211.988281 175.496094 C 208.585938 177.195312 205.183594 178.21875 201.78125 178.21875 C 201.101562 178.21875 200.761719 178.21875 200.082031 178.21875 C 196 178.21875 191.917969 177.195312 188.175781 175.496094 C 185.792969 174.136719 183.414062 172.773438 181.371094 170.394531 C 181.371094 162.910156 187.496094 156.785156 195.320312 156.785156 L 200.082031 166.3125 L 204.84375 156.785156 C 212.667969 156.785156 218.792969 162.910156 218.792969 170.394531 Z M 218.792969 170.394531 " fill-opacity="1" fill-rule="nonzero"/><path fill="#ffa726" d="M 241.925781 209.515625 L 225.59375 187.742188 C 224.234375 188.761719 222.875 189.785156 221.511719 190.804688 L 237.503906 212.578125 C 236.820312 213.257812 236.140625 213.9375 235.121094 214.617188 C 223.894531 225.84375 223.894531 243.875 235.121094 255.101562 C 237.160156 257.140625 239.882812 259.183594 242.265625 260.542969 C 246.347656 262.585938 250.769531 263.605469 255.191406 263.605469 C 255.871094 263.605469 256.210938 263.605469 256.894531 263.605469 C 260.636719 263.265625 264.378906 262.242188 268.117188 260.542969 C 270.839844 259.183594 273.222656 257.480469 275.261719 255.441406 C 275.261719 255.441406 275.601562 255.441406 275.601562 255.101562 C 280.367188 249.996094 283.425781 243.535156 283.769531 236.730469 C 284.449219 228.566406 281.386719 220.402344 275.601562 214.617188 C 266.757812 205.09375 252.8125 203.390625 241.925781 209.515625 Z M 255.871094 217 C 259.953125 217 263.355469 220.402344 263.355469 224.484375 C 263.355469 228.566406 259.953125 231.96875 255.871094 231.96875 C 251.789062 231.96875 248.386719 228.566406 248.386719 224.484375 C 248.046875 220.402344 251.449219 217 255.871094 217 Z M 272.203125 245.234375 C 270.5 246.933594 268.460938 248.636719 266.078125 249.65625 C 263.355469 251.019531 260.292969 252.039062 256.894531 252.039062 C 256.550781 252.039062 255.871094 252.039062 255.53125 252.039062 C 251.789062 252.039062 248.386719 251.359375 244.988281 249.65625 C 242.945312 248.636719 240.902344 247.277344 238.863281 245.234375 C 238.863281 238.429688 244.304688 233.328125 251.109375 233.328125 L 255.53125 241.832031 L 259.953125 233.328125 C 266.757812 233.328125 272.203125 238.769531 272.203125 245.234375 Z M 272.203125 245.234375 " fill-opacity="1" fill-rule="nonzero"/><path fill="#ffa726" d="M 159.941406 201.011719 C 147.011719 201.011719 136.464844 211.554688 136.464844 224.484375 C 136.464844 237.410156 147.011719 247.957031 159.941406 247.957031 C 172.867188 247.957031 183.414062 237.410156 183.414062 224.484375 C 183.414062 211.554688 172.867188 201.011719 159.941406 201.011719 Z M 159.941406 201.011719 " fill-opacity="1" fill-rule="nonzero"/><g clip-path="url(#cd408aa99a)"><path fill="#ffa726" d="M 274.242188 132.972656 C 261.316406 132.972656 250.769531 143.519531 250.769531 156.445312 C 250.769531 169.371094 261.316406 179.917969 274.242188 179.917969 C 287.167969 179.917969 297.714844 169.371094 297.714844 156.445312 C 297.714844 143.519531 287.167969 132.972656 274.242188 132.972656 Z M 274.242188 132.972656 " fill-opacity="1" fill-rule="nonzero"/></g><path fill="#ffa726" d="M 164.363281 108.480469 C 177.289062 108.480469 187.835938 97.933594 187.835938 85.007812 C 187.835938 72.078125 177.289062 61.535156 164.363281 61.535156 C 151.433594 61.535156 140.890625 72.078125 140.890625 85.007812 C 140.890625 97.933594 151.433594 108.480469 164.363281 108.480469 Z M 164.363281 108.480469 " fill-opacity="1" fill-rule="nonzero"/><path fill="#ffa726" d="M 225.59375 124.128906 L 239.542969 105.757812 C 240.5625 106.4375 241.925781 107.117188 242.945312 107.796875 C 247.027344 109.839844 251.449219 110.859375 255.871094 110.859375 C 256.550781 110.859375 256.894531 110.859375 257.574219 110.859375 C 261.316406 110.519531 265.058594 109.5 268.800781 107.796875 C 271.519531 106.4375 273.902344 104.738281 275.945312 102.695312 C 275.945312 102.695312 276.285156 102.695312 276.285156 102.355469 C 281.046875 97.253906 284.109375 90.789062 284.449219 83.984375 C 285.128906 75.820312 282.066406 67.65625 276.285156 61.875 C 265.058594 50.648438 247.027344 50.648438 235.800781 61.875 C 224.574219 73.101562 224.574219 91.128906 235.800781 102.355469 L 221.511719 121.066406 C 222.875 122.085938 224.234375 123.105469 225.59375 124.128906 Z M 255.871094 64.59375 C 259.953125 64.59375 263.355469 67.996094 263.355469 72.078125 C 263.355469 76.160156 259.953125 79.5625 255.871094 79.5625 C 251.789062 79.5625 248.386719 76.160156 248.386719 72.078125 C 248.386719 67.996094 251.449219 64.59375 255.871094 64.59375 Z M 251.449219 81.265625 L 255.871094 89.769531 L 260.292969 81.265625 C 267.097656 81.265625 272.542969 86.707031 272.542969 93.171875 C 270.839844 94.871094 268.800781 96.574219 266.417969 97.59375 C 263.695312 98.953125 260.636719 99.972656 257.234375 99.972656 C 256.894531 99.972656 256.210938 99.972656 255.871094 99.972656 C 252.128906 99.972656 248.726562 99.292969 245.328125 97.59375 C 243.285156 96.574219 241.246094 95.210938 239.203125 93.171875 C 239.203125 86.367188 244.644531 81.265625 251.449219 81.265625 Z M 251.449219 81.265625 " fill-opacity="1" fill-rule="nonzero"/><path fill="#ffa726" d="M 159.597656 159.167969 C 159.597656 157.464844 159.597656 155.765625 159.597656 154.0625 L 137.148438 154.0625 C 136.808594 146.921875 134.085938 139.777344 128.984375 134.671875 C 117.757812 123.449219 99.726562 123.449219 88.5 134.671875 C 77.273438 145.898438 77.273438 163.929688 88.5 175.15625 C 90.542969 177.195312 93.261719 179.238281 95.644531 180.597656 C 99.726562 182.640625 104.148438 183.660156 108.570312 183.660156 C 109.25 183.660156 109.59375 183.660156 110.273438 183.660156 C 114.015625 183.320312 117.757812 182.300781 121.5 180.597656 C 124.21875 179.238281 126.601562 177.539062 128.640625 175.496094 C 128.640625 175.496094 128.984375 175.496094 128.984375 175.15625 C 133.40625 170.734375 136.125 165.289062 136.808594 159.507812 L 159.597656 159.507812 Z M 108.570312 137.054688 C 112.652344 137.054688 116.054688 140.457031 116.054688 144.539062 C 116.054688 148.621094 112.652344 152.023438 108.570312 152.023438 C 104.488281 152.023438 101.085938 148.621094 101.085938 144.539062 C 101.085938 140.457031 104.488281 137.054688 108.570312 137.054688 Z M 124.898438 165.628906 C 123.199219 167.332031 121.15625 169.03125 118.777344 170.054688 C 116.054688 171.414062 112.992188 172.433594 109.59375 172.433594 C 109.25 172.433594 108.570312 172.433594 108.230469 172.433594 C 104.488281 172.433594 101.085938 171.753906 97.683594 170.054688 C 95.644531 169.03125 93.601562 167.671875 91.5625 165.628906 C 91.5625 158.828125 97.003906 153.722656 103.808594 153.722656 L 108.570312 161.886719 L 112.992188 153.382812 C 119.457031 153.382812 124.898438 158.828125 124.898438 165.628906 C 124.898438 165.289062 124.898438 165.628906 124.898438 165.628906 Z M 124.898438 165.628906 " fill-opacity="1" fill-rule="nonzero"/><g fill="#ffffff" fill-opacity="1"><g transform="translate(86.659152, 315.878425)"><g><path d="M 11.144531 0.5 C 16.324219 0.5 20.609375 -2.109375 20.609375 -7.5 C 20.609375 -13.109375 15.824219 -14.289062 12.039062 -15.253906 C 9.359375 -15.894531 7.214844 -16.429688 7.214844 -18.179688 C 7.214844 -19.824219 8.964844 -20.574219 10.714844 -20.574219 C 12.753906 -20.574219 14.539062 -19.574219 14.539062 -17.394531 L 19.859375 -17.394531 C 19.859375 -22.398438 16.609375 -25.46875 10.859375 -25.46875 C 5.324219 -25.46875 1.785156 -22.753906 1.785156 -17.96875 C 1.785156 -12.574219 6.359375 -11.464844 10.144531 -10.539062 C 12.859375 -9.929688 15.144531 -9.394531 15.144531 -7.429688 C 15.144531 -5.574219 13.144531 -4.5 11.109375 -4.5 C 8.894531 -4.5 6.894531 -5.679688 6.894531 -8.074219 L 1.429688 -8.074219 C 1.429688 -2.714844 5.394531 0.5 11.144531 0.5 Z M 11.144531 0.5 "/></g></g></g><g fill="#ffffff" fill-opacity="1"><g transform="translate(108.769218, 315.878425)"><g><path d="M 11.644531 0.570312 C 17.609375 0.570312 22.074219 -3.820312 22.074219 -9.644531 C 22.074219 -15.46875 17.609375 -19.824219 11.644531 -19.824219 C 5.679688 -19.824219 1.214844 -15.46875 1.214844 -9.644531 C 1.214844 -3.820312 5.679688 0.570312 11.644531 0.570312 Z M 11.644531 -4.359375 C 8.644531 -4.359375 6.5 -6.5 6.5 -9.644531 C 6.5 -12.753906 8.644531 -14.929688 11.644531 -14.929688 C 14.644531 -14.929688 16.789062 -12.753906 16.789062 -9.644531 C 16.789062 -6.5 14.644531 -4.359375 11.644531 -4.359375 Z M 11.644531 -4.359375 "/></g></g></g><g fill="#ffffff" fill-opacity="1"><g transform="translate(132.09373, 315.878425)"><g><path d="M 11.464844 0.570312 C 16.503906 0.570312 20.46875 -2.714844 21.359375 -7.574219 L 16.109375 -7.574219 C 15.21875 -5.5 13.574219 -4.359375 11.464844 -4.359375 C 8.679688 -4.359375 6.5 -6.679688 6.5 -9.644531 C 6.5 -12.644531 8.644531 -14.929688 11.464844 -14.929688 C 13.539062 -14.929688 15.289062 -13.789062 16.109375 -11.894531 L 21.289062 -11.894531 C 20.359375 -16.644531 16.503906 -19.824219 11.5 -19.824219 C 5.644531 -19.824219 1.214844 -15.46875 1.214844 -9.679688 C 1.214844 -3.894531 5.644531 0.570312 11.464844 0.570312 Z M 11.464844 0.570312 "/></g></g></g><g fill="#ffffff" fill-opacity="1"><g transform="translate(154.418104, 315.878425)"><g><path d="M 2.5 -21.859375 L 7.679688 -21.859375 L 7.679688 -26.683594 L 2.5 -26.683594 Z M 2.5 0 L 7.714844 0 L 7.714844 -19.289062 L 2.5 -19.289062 Z M 2.5 0 "/></g></g></g><g fill="#ffffff" fill-opacity="1"><g transform="translate(164.633741, 315.878425)"><g><path d="M 18.21875 -19.289062 L 17.679688 -17.46875 C 16.003906 -18.933594 13.824219 -19.824219 11.324219 -19.824219 C 5.535156 -19.824219 1.214844 -15.46875 1.214844 -9.644531 C 1.214844 -3.820312 5.535156 0.570312 11.324219 0.570312 C 13.789062 0.570312 15.929688 -0.285156 17.574219 -1.75 L 18.039062 0 L 22.109375 0 L 22.109375 -19.289062 Z M 11.753906 -4.359375 C 8.714844 -4.359375 6.5 -6.644531 6.5 -9.644531 C 6.5 -12.679688 8.714844 -14.929688 11.753906 -14.929688 C 14.789062 -14.929688 17.003906 -12.679688 17.003906 -9.644531 C 17.003906 -6.609375 14.789062 -4.359375 11.753906 -4.359375 Z M 11.753906 -4.359375 "/></g></g></g><g fill="#ffffff" fill-opacity="1"><g transform="translate(189.279861, 315.878425)"><g><path d="M 2.5 0 L 7.714844 0 L 7.714844 -26.21875 L 2.5 -26.21875 Z M 2.5 0 "/></g></g></g><g fill="#ffffff" fill-opacity="1"><g transform="translate(199.495497, 315.878425)"><g><path d="M 11.144531 0.5 C 16.324219 0.5 20.609375 -2.109375 20.609375 -7.5 C 20.609375 -13.109375 15.824219 -14.289062 12.039062 -15.253906 C 9.359375 -15.894531 7.214844 -16.429688 7.214844 -18.179688 C 7.214844 -19.824219 8.964844 -20.574219 10.714844 -20.574219 C 12.753906 -20.574219 14.539062 -19.574219 14.539062 -17.394531 L 19.859375 -17.394531 C 19.859375 -22.398438 16.609375 -25.46875 10.859375 -25.46875 C 5.324219 -25.46875 1.785156 -22.753906 1.785156 -17.96875 C 1.785156 -12.574219 6.359375 -11.464844 10.144531 -10.539062 C 12.859375 -9.929688 15.144531 -9.394531 15.144531 -7.429688 C 15.144531 -5.574219 13.144531 -4.5 11.109375 -4.5 C 8.894531 -4.5 6.894531 -5.679688 6.894531 -8.074219 L 1.429688 -8.074219 C 1.429688 -2.714844 5.394531 0.5 11.144531 0.5 Z M 11.144531 0.5 "/></g></g></g><g fill="#ffffff" fill-opacity="1"><g transform="translate(221.605563, 315.878425)"><g><path d="M 15.824219 -19.289062 L 11 -7.394531 L 5.859375 -19.289062 L 0.179688 -19.289062 L 8.359375 -1.464844 L 8.285156 -1.320312 C 7.109375 1.605469 6.464844 2.285156 3.929688 2.285156 L 2.144531 2.285156 L 2.144531 6.964844 L 4.285156 6.964844 C 8.609375 6.964844 10.644531 5 12.964844 -0.25 L 21.359375 -19.289062 Z M 15.824219 -19.289062 "/></g></g></g><g fill="#ffffff" fill-opacity="1"><g transform="translate(243.108405, 315.878425)"><g><path d="M 13.464844 -19.71875 C 10.859375 -19.71875 8.539062 -18.609375 7.074219 -16.894531 L 6.074219 -19.289062 L 2.5 -19.289062 L 2.5 0 L 7.714844 0 L 7.714844 -10.109375 C 7.714844 -13.214844 9.359375 -15.144531 12.039062 -15.144531 C 14.289062 -15.144531 15.394531 -13.753906 15.394531 -10.824219 L 15.394531 0 L 20.609375 0 L 20.609375 -11.679688 C 20.609375 -16.574219 17.859375 -19.71875 13.464844 -19.71875 Z M 13.464844 -19.71875 "/></g></g></g><g fill="#ffffff" fill-opacity="1"><g transform="translate(266.004286, 315.878425)"><g><path d="M 11.464844 0.570312 C 16.503906 0.570312 20.46875 -2.714844 21.359375 -7.574219 L 16.109375 -7.574219 C 15.21875 -5.5 13.574219 -4.359375 11.464844 -4.359375 C 8.679688 -4.359375 6.5 -6.679688 6.5 -9.644531 C 6.5 -12.644531 8.644531 -14.929688 11.464844 -14.929688 C 13.539062 -14.929688 15.289062 -13.789062 16.109375 -11.894531 L 21.289062 -11.894531 C 20.359375 -16.644531 16.503906 -19.824219 11.5 -19.824219 C 5.644531 -19.824219 1.214844 -15.46875 1.214844 -9.679688 C 1.214844 -3.894531 5.644531 0.570312 11.464844 0.570312 Z M 11.464844 0.570312 "/></g></g></g><g fill="#ffffff" fill-opacity="1"><g transform="translate(90.201268, 338.754137)"><g><path d="M 3.121094 0.140625 C 4.570312 0.140625 5.769531 -0.589844 5.769531 -2.097656 C 5.769531 -3.667969 4.429688 -4 3.371094 -4.269531 C 2.621094 -4.449219 2.019531 -4.597656 2.019531 -5.089844 C 2.019531 -5.546875 2.507812 -5.757812 3 -5.757812 C 3.570312 -5.757812 4.070312 -5.480469 4.070312 -4.867188 L 5.558594 -4.867188 C 5.558594 -6.269531 4.648438 -7.128906 3.039062 -7.128906 C 1.488281 -7.128906 0.5 -6.367188 0.5 -5.027344 C 0.5 -3.519531 1.78125 -3.210938 2.839844 -2.949219 C 3.597656 -2.78125 4.238281 -2.628906 4.238281 -2.078125 C 4.238281 -1.558594 3.679688 -1.257812 3.109375 -1.257812 C 2.488281 -1.257812 1.929688 -1.589844 1.929688 -2.257812 L 0.398438 -2.257812 C 0.398438 -0.761719 1.507812 0.140625 3.121094 0.140625 Z M 3.121094 0.140625 "/></g></g></g><g fill="#ffffff" fill-opacity="1"><g transform="translate(98.399242, 338.754137)"><g><path d="M 2.308594 -1.398438 L 2.308594 -2.839844 L 4.738281 -2.839844 L 4.738281 -4.207031 L 2.308594 -4.207031 L 2.308594 -5.597656 L 5 -5.597656 L 5 -7 L 0.800781 -7 L 0.800781 0 L 5.109375 0 L 5.109375 -1.398438 Z M 2.308594 -1.398438 "/></g></g></g><g fill="#ffffff" fill-opacity="1"><g transform="translate(105.997366, 338.754137)"><g><path d="M 5.4375 0 L 7.089844 0 L 4.257812 -7 L 2.828125 -7 L 0.078125 0 L 1.691406 0 L 2.167969 -1.320312 L 4.949219 -1.320312 Z M 3.558594 -5.148438 L 4.480469 -2.640625 L 2.640625 -2.640625 Z M 3.558594 -5.148438 "/></g></g></g><g fill="#ffffff" fill-opacity="1"><g transform="translate(115.185094, 338.754137)"><g><path d="M 9.367188 0 L 8.289062 -7 L 6.769531 -7 L 4.867188 -2.699219 L 2.96875 -7 L 1.460938 -7 L 0.359375 0 L 1.898438 0 L 2.589844 -4.558594 L 4.679688 -0.0117188 L 5.046875 -0.0117188 L 7.136719 -4.558594 L 7.828125 0 Z M 9.367188 0 "/></g></g></g><g fill="#ffffff" fill-opacity="1"><g transform="translate(126.942195, 338.754137)"><g><path d="M 2.308594 -1.398438 L 2.308594 -7 L 0.800781 -7 L 0.800781 0 L 5 0 L 5 -1.398438 Z M 2.308594 -1.398438 "/></g></g></g><g fill="#ffffff" fill-opacity="1"><g transform="translate(134.170399, 338.754137)"><g><path d="M 2.308594 -1.398438 L 2.308594 -2.839844 L 4.738281 -2.839844 L 4.738281 -4.207031 L 2.308594 -4.207031 L 2.308594 -5.597656 L 5 -5.597656 L 5 -7 L 0.800781 -7 L 0.800781 0 L 5.109375 0 L 5.109375 -1.398438 Z M 2.308594 -1.398438 "/></g></g></g><g fill="#ffffff" fill-opacity="1"><g transform="translate(141.768523, 338.754137)"><g><path d="M 3.121094 0.140625 C 4.570312 0.140625 5.769531 -0.589844 5.769531 -2.097656 C 5.769531 -3.667969 4.429688 -4 3.371094 -4.269531 C 2.621094 -4.449219 2.019531 -4.597656 2.019531 -5.089844 C 2.019531 -5.546875 2.507812 -5.757812 3 -5.757812 C 3.570312 -5.757812 4.070312 -5.480469 4.070312 -4.867188 L 5.558594 -4.867188 C 5.558594 -6.269531 4.648438 -7.128906 3.039062 -7.128906 C 1.488281 -7.128906 0.5 -6.367188 0.5 -5.027344 C 0.5 -3.519531 1.78125 -3.210938 2.839844 -2.949219 C 3.597656 -2.78125 4.238281 -2.628906 4.238281 -2.078125 C 4.238281 -1.558594 3.679688 -1.257812 3.109375 -1.257812 C 2.488281 -1.257812 1.929688 -1.589844 1.929688 -2.257812 L 0.398438 -2.257812 C 0.398438 -0.761719 1.507812 0.140625 3.121094 0.140625 Z M 3.121094 0.140625 "/></g></g></g><g fill="#ffffff" fill-opacity="1"><g transform="translate(149.966496, 338.754137)"><g><path d="M 3.121094 0.140625 C 4.570312 0.140625 5.769531 -0.589844 5.769531 -2.097656 C 5.769531 -3.667969 4.429688 -4 3.371094 -4.269531 C 2.621094 -4.449219 2.019531 -4.597656 2.019531 -5.089844 C 2.019531 -5.546875 2.507812 -5.757812 3 -5.757812 C 3.570312 -5.757812 4.070312 -5.480469 4.070312 -4.867188 L 5.558594 -4.867188 C 5.558594 -6.269531 4.648438 -7.128906 3.039062 -7.128906 C 1.488281 -7.128906 0.5 -6.367188 0.5 -5.027344 C 0.5 -3.519531 1.78125 -3.210938 2.839844 -2.949219 C 3.597656 -2.78125 4.238281 -2.628906 4.238281 -2.078125 C 4.238281 -1.558594 3.679688 -1.257812 3.109375 -1.257812 C 2.488281 -1.257812 1.929688 -1.589844 1.929688 -2.257812 L 0.398438 -2.257812 C 0.398438 -0.761719 1.507812 0.140625 3.121094 0.140625 Z M 3.121094 0.140625 "/></g></g></g><g fill="#ffffff" fill-opacity="1"><g transform="translate(158.164472, 338.754137)"><g/></g></g><g fill="#ffffff" fill-opacity="1"><g transform="translate(162.563384, 338.754137)"><g><path d="M 4.007812 0.160156 C 5.738281 0.160156 7.097656 -1 7.417969 -2.730469 L 5.886719 -2.730469 C 5.636719 -1.847656 4.929688 -1.289062 4.007812 -1.289062 C 2.820312 -1.289062 1.929688 -2.230469 1.929688 -3.488281 C 1.929688 -4.75 2.820312 -5.699219 4.007812 -5.699219 C 4.890625 -5.699219 5.589844 -5.179688 5.878906 -4.359375 L 7.386719 -4.359375 C 7.066406 -6.019531 5.707031 -7.148438 4.007812 -7.148438 C 1.949219 -7.148438 0.390625 -5.570312 0.390625 -3.488281 C 0.390625 -1.417969 1.949219 0.160156 4.007812 0.160156 Z M 4.007812 0.160156 "/></g></g></g><g fill="#ffffff" fill-opacity="1"><g transform="translate(172.280981, 338.754137)"><g><path d="M 4.117188 0.160156 C 6.25 0.160156 7.839844 -1.410156 7.839844 -3.5 C 7.839844 -5.578125 6.25 -7.148438 4.117188 -7.148438 C 1.980469 -7.148438 0.378906 -5.570312 0.378906 -3.5 C 0.378906 -1.417969 1.980469 0.160156 4.117188 0.160156 Z M 4.117188 -1.269531 C 2.871094 -1.269531 1.917969 -2.238281 1.917969 -3.5 C 1.917969 -4.757812 2.871094 -5.71875 4.117188 -5.71875 C 5.367188 -5.71875 6.296875 -4.769531 6.296875 -3.5 C 6.296875 -2.230469 5.367188 -1.269531 4.117188 -1.269531 Z M 4.117188 -1.269531 "/></g></g></g><g fill="#ffffff" fill-opacity="1"><g transform="translate(182.518452, 338.754137)"><g><path d="M 5.230469 -7 L 5.230469 -2.730469 L 2.160156 -7 L 0.800781 -7 L 0.800781 0 L 2.28125 0 L 2.28125 -4.367188 L 5.449219 0 L 6.71875 0 L 6.71875 -7 Z M 5.230469 -7 "/></g></g></g><g fill="#ffffff" fill-opacity="1"><g transform="translate(192.046099, 338.754137)"><g><path d="M 5.617188 -7 L 0.210938 -7 L 0.210938 -5.589844 L 2.160156 -5.589844 L 2.160156 0 L 3.667969 0 L 3.667969 -5.589844 L 5.617188 -5.589844 Z M 5.617188 -7 "/></g></g></g><g fill="#ffffff" fill-opacity="1"><g transform="translate(199.894159, 338.754137)"><g><path d="M 2.308594 -1.398438 L 2.308594 -2.839844 L 4.738281 -2.839844 L 4.738281 -4.207031 L 2.308594 -4.207031 L 2.308594 -5.597656 L 5 -5.597656 L 5 -7 L 0.800781 -7 L 0.800781 0 L 5.109375 0 L 5.109375 -1.398438 Z M 2.308594 -1.398438 "/></g></g></g><g fill="#ffffff" fill-opacity="1"><g transform="translate(207.492286, 338.754137)"><g><path d="M 5.230469 -7 L 5.230469 -2.730469 L 2.160156 -7 L 0.800781 -7 L 0.800781 0 L 2.28125 0 L 2.28125 -4.367188 L 5.449219 0 L 6.71875 0 L 6.71875 -7 Z M 5.230469 -7 "/></g></g></g><g fill="#ffffff" fill-opacity="1"><g transform="translate(217.019933, 338.754137)"><g><path d="M 5.617188 -7 L 0.210938 -7 L 0.210938 -5.589844 L 2.160156 -5.589844 L 2.160156 0 L 3.667969 0 L 3.667969 -5.589844 L 5.617188 -5.589844 Z M 5.617188 -7 "/></g></g></g><g fill="#ffffff" fill-opacity="1"><g transform="translate(224.867999, 338.754137)"><g/></g></g><g fill="#ffffff" fill-opacity="1"><g transform="translate(229.266912, 338.754137)"><g><path d="M 3.121094 0.140625 C 4.570312 0.140625 5.769531 -0.589844 5.769531 -2.097656 C 5.769531 -3.667969 4.429688 -4 3.371094 -4.269531 C 2.621094 -4.449219 2.019531 -4.597656 2.019531 -5.089844 C 2.019531 -5.546875 2.507812 -5.757812 3 -5.757812 C 3.570312 -5.757812 4.070312 -5.480469 4.070312 -4.867188 L 5.558594 -4.867188 C 5.558594 -6.269531 4.648438 -7.128906 3.039062 -7.128906 C 1.488281 -7.128906 0.5 -6.367188 0.5 -5.027344 C 0.5 -3.519531 1.78125 -3.210938 2.839844 -2.949219 C 3.597656 -2.78125 4.238281 -2.628906 4.238281 -2.078125 C 4.238281 -1.558594 3.679688 -1.257812 3.109375 -1.257812 C 2.488281 -1.257812 1.929688 -1.589844 1.929688 -2.257812 L 0.398438 -2.257812 C 0.398438 -0.761719 1.507812 0.140625 3.121094 0.140625 Z M 3.121094 0.140625 "/></g></g></g><g fill="#ffffff" fill-opacity="1"><g transform="translate(237.464888, 338.754137)"><g><path d="M 4.949219 -7 L 4.949219 -4.300781 L 2.308594 -4.300781 L 2.308594 -7 L 0.800781 -7 L 0.800781 0 L 2.308594 0 L 2.308594 -2.890625 L 4.949219 -2.890625 L 4.949219 0 L 6.457031 0 L 6.457031 -7 Z M 4.949219 -7 "/></g></g></g><g fill="#ffffff" fill-opacity="1"><g transform="translate(246.742595, 338.754137)"><g><path d="M 5.4375 0 L 7.089844 0 L 4.257812 -7 L 2.828125 -7 L 0.078125 0 L 1.691406 0 L 2.167969 -1.320312 L 4.949219 -1.320312 Z M 3.558594 -5.148438 L 4.480469 -2.640625 L 2.640625 -2.640625 Z M 3.558594 -5.148438 "/></g></g></g><g fill="#ffffff" fill-opacity="1"><g transform="translate(255.930324, 338.754137)"><g><path d="M 4.648438 0 L 6.339844 0 L 4.789062 -2.640625 C 5.570312 -3.019531 6.070312 -3.757812 6.070312 -4.679688 C 6.070312 -6.027344 5.019531 -7 3.617188 -7 L 0.800781 -7 L 0.800781 0 L 2.308594 0 L 2.308594 -2.378906 L 3.277344 -2.378906 Z M 2.308594 -5.597656 L 3.519531 -5.597656 C 4.160156 -5.597656 4.527344 -5.207031 4.527344 -4.6875 C 4.527344 -4.160156 4.160156 -3.777344 3.519531 -3.777344 L 2.308594 -3.777344 Z M 2.308594 -5.597656 "/></g></g></g><g fill="#ffffff" fill-opacity="1"><g transform="translate(264.548192, 338.754137)"><g><path d="M 0.800781 0 L 2.308594 0 L 2.308594 -7 L 0.800781 -7 Z M 0.800781 0 "/></g></g></g><g fill="#ffffff" fill-opacity="1"><g transform="translate(269.676927, 338.754137)"><g><path d="M 5.230469 -7 L 5.230469 -2.730469 L 2.160156 -7 L 0.800781 -7 L 0.800781 0 L 2.28125 0 L 2.28125 -4.367188 L 5.449219 0 L 6.71875 0 L 6.71875 -7 Z M 5.230469 -7 "/></g></g></g><g fill="#ffffff" fill-opacity="1"><g transform="translate(279.204574, 338.754137)"><g><path d="M 3.867188 -3.648438 L 3.867188 -2.488281 L 5.96875 -2.488281 C 5.707031 -1.769531 4.917969 -1.289062 4.019531 -1.289062 C 2.757812 -1.289062 1.929688 -2.1875 1.929688 -3.488281 C 1.929688 -4.796875 2.78125 -5.699219 4.019531 -5.699219 C 4.898438 -5.699219 5.636719 -5.230469 5.9375 -4.480469 L 7.5 -4.480469 C 7.167969 -6.046875 5.730469 -7.148438 3.988281 -7.148438 C 1.917969 -7.148438 0.390625 -5.578125 0.390625 -3.488281 C 0.390625 -1.390625 1.960938 0.160156 4.019531 0.160156 C 6.117188 0.160156 7.589844 -1.460938 7.589844 -3.648438 Z M 3.867188 -3.648438 "/></g></g></g></svg>