<svg width="242" height="317" viewBox="0 0 242 317" fill="none" xmlns="http://www.w3.org/2000/svg">
<path d="M169.703 127.72C171.597 123.645 172.73 118.829 173.108 114.384C173.863 103.268 169.703 92.1523 161.761 84.3717C146.259 69.1849 121.298 69.1849 105.792 84.3717C90.2894 99.5627 90.2894 124.015 105.792 139.201C108.818 142.167 112.223 144.761 116.005 146.612C121.676 149.207 127.73 150.687 134.156 150.687C134.912 150.687 135.667 150.687 136.427 150.687C141.721 150.317 147.014 148.837 151.93 146.612C155.712 144.761 159.116 142.167 162.143 139.201C165.165 135.871 167.814 131.795 169.703 127.72ZM133.401 88.8214C139.828 88.8214 145.125 94.007 145.125 100.303C145.125 106.603 139.828 111.789 133.401 111.789C126.97 111.789 121.676 106.603 121.676 100.303C121.676 94.007 126.97 88.8214 133.401 88.8214ZM154.201 127.35C151.93 129.57 149.285 131.425 146.636 132.906C142.854 134.756 139.072 135.871 135.29 135.871C134.534 135.871 134.156 135.871 133.401 135.871C128.863 135.871 124.325 134.756 120.165 132.906C117.516 131.425 114.872 129.941 112.601 127.35C112.601 119.199 119.41 112.529 128.107 112.529L133.401 122.904L138.694 112.529C147.392 112.529 154.201 119.199 154.201 127.35Z" fill="#FFA726"/>
<path d="M179.917 169.954L161.761 146.242C160.25 147.352 158.739 148.467 157.223 149.577L175.001 173.289C174.241 174.029 173.486 174.769 172.352 175.509C159.872 187.735 159.872 207.372 172.352 219.598C174.619 221.818 177.646 224.043 180.294 225.524C184.832 227.748 189.748 228.859 194.663 228.859C195.419 228.859 195.797 228.859 196.557 228.859C200.717 228.489 204.877 227.374 209.032 225.524C212.059 224.043 214.708 222.188 216.975 219.968C216.975 219.968 217.353 219.968 217.353 219.598C222.65 214.038 226.05 207.002 226.432 199.591C227.188 190.7 223.784 181.81 217.353 175.509C207.521 165.138 192.019 163.283 179.917 169.954ZM195.419 178.104C199.957 178.104 203.739 181.81 203.739 186.255C203.739 190.7 199.957 194.406 195.419 194.406C190.881 194.406 187.099 190.7 187.099 186.255C186.721 181.81 190.503 178.104 195.419 178.104ZM213.575 208.852C211.681 210.703 209.415 212.557 206.766 213.668C203.739 215.152 200.335 216.263 196.557 216.263C196.175 216.263 195.419 216.263 195.041 216.263C190.881 216.263 187.099 215.522 183.321 213.668C181.05 212.557 178.779 211.077 176.512 208.852C176.512 201.442 182.561 195.886 190.126 195.886L195.041 205.147L199.957 195.886C207.521 195.886 213.575 201.812 213.575 208.852Z" fill="#FFA726"/>
<path d="M88.7783 160.693C74.4049 160.693 62.6804 172.174 62.6804 186.255C62.6804 200.331 74.4049 211.817 88.7783 211.817C103.147 211.817 114.872 200.331 114.872 186.255C114.872 172.174 103.147 160.693 88.7783 160.693Z" fill="#FFA726"/>
<mask id="mask0_7_832" style="mask-type:luminance" maskUnits="userSpaceOnUse" x="188" y="85" width="54" height="53">
<path d="M188.892 85.5373H242V137.81H188.892V85.5373Z" fill="white"/>
</mask>
<g mask="url(#mask0_7_832)">
<path d="M215.841 86.5965C201.472 86.5965 189.748 98.0823 189.748 112.159C189.748 126.235 201.472 137.721 215.841 137.721C230.21 137.721 241.935 126.235 241.935 112.159C241.935 98.0823 230.21 86.5965 215.841 86.5965Z" fill="#FFA726"/>
</g>
<path d="M93.6938 59.924C108.063 59.924 119.787 48.4382 119.787 34.3617C119.787 20.281 108.063 8.79941 93.6938 8.79941C79.3205 8.79941 67.6003 20.281 67.6003 34.3617C67.6003 48.4382 79.3205 59.924 93.6938 59.924Z" fill="#FFA726"/>
<path d="M161.761 76.9655L177.268 56.9589C178.401 57.6991 179.917 58.4393 181.05 59.1795C185.588 61.4043 190.503 62.5146 195.419 62.5146C196.175 62.5146 196.557 62.5146 197.312 62.5146C201.472 62.1445 205.632 61.0342 209.792 59.1795C212.815 57.6991 215.464 55.8486 217.735 53.6238C217.735 53.6238 218.112 53.6238 218.112 53.2537C223.406 47.698 226.81 40.6576 227.188 33.2471C227.944 24.3563 224.539 15.4654 218.112 9.16949C205.632 -3.0565 185.588 -3.0565 173.108 9.16949C160.628 21.3955 160.628 41.0277 173.108 53.2537L157.223 73.6303C158.739 74.7406 160.25 75.8509 161.761 76.9655ZM195.419 12.1303C199.957 12.1303 203.739 15.8355 203.739 20.2809C203.739 24.7264 199.957 28.4316 195.419 28.4316C190.881 28.4316 187.099 24.7264 187.099 20.2809C187.099 15.8355 190.503 12.1303 195.419 12.1303ZM190.503 30.2863L195.419 39.5473L200.335 30.2863C207.899 30.2863 213.952 36.2122 213.952 43.2525C212.059 45.103 209.792 46.9578 207.144 48.0681C204.117 49.5484 200.717 50.6587 196.935 50.6587C196.557 50.6587 195.797 50.6587 195.419 50.6587C191.259 50.6587 187.477 49.9185 183.699 48.0681C181.428 46.9578 179.161 45.4731 176.89 43.2525C176.89 35.8421 182.939 30.2863 190.503 30.2863Z" fill="#FFA726"/>
<path d="M88.3961 115.124C88.3961 113.269 88.3961 111.419 88.3961 109.564H63.4403C63.0626 101.788 60.0359 94.007 54.3647 88.447C41.8847 76.2253 21.8401 76.2253 9.36005 88.447C-3.12002 100.673 -3.12002 120.309 9.36005 132.535C11.6311 134.756 14.6534 136.981 17.3023 138.461C21.8401 140.686 26.7557 141.796 31.6713 141.796C32.4269 141.796 32.809 141.796 33.5646 141.796C37.7246 141.426 41.8847 140.316 46.0447 138.461C49.067 136.981 51.7159 135.13 53.9826 132.906C53.9826 132.906 54.3647 132.906 54.3647 132.535C59.2803 127.72 62.3026 121.79 63.0626 115.494H88.3961V115.124ZM31.6713 91.0419C36.2091 91.0419 39.9914 94.7472 39.9914 99.1926C39.9914 103.638 36.2091 107.343 31.6713 107.343C27.1335 107.343 23.3513 103.638 23.3513 99.1926C23.3513 94.7472 27.1335 91.0419 31.6713 91.0419ZM49.8226 122.16C47.9336 124.015 45.6625 125.865 43.018 126.98C39.9914 128.46 36.5869 129.57 32.809 129.57C32.4269 129.57 31.6713 129.57 31.2935 129.57C27.1335 129.57 23.3513 128.83 19.569 126.98C17.3023 125.865 15.0312 124.385 12.7645 122.16C12.7645 114.754 18.8135 109.194 26.3779 109.194L31.6713 118.085L36.5869 108.824C43.7736 108.824 49.8226 114.754 49.8226 122.16Z" fill="#FFA726"/>
<path d="M19.7026 291.944C25.4606 291.944 30.2242 289.102 30.2242 283.232C30.2242 277.123 24.9048 275.838 20.697 274.788C17.7181 274.09 15.3341 273.507 15.3341 271.601C15.3341 269.81 17.2795 268.994 19.2249 268.994C21.4916 268.994 23.4761 270.083 23.4761 272.456H29.3905C29.3905 267.007 25.7776 263.663 19.3856 263.663C13.2324 263.663 9.29817 266.62 9.29817 271.831C9.29817 277.706 14.3831 278.914 18.5909 279.922C21.6089 280.586 24.1492 281.169 24.1492 283.308C24.1492 285.329 21.9259 286.499 19.6635 286.499C17.2013 286.499 14.978 285.214 14.978 282.606H8.90302C8.90302 288.443 13.3106 291.944 19.7026 291.944Z" fill="white"/>
<path d="M44.8371 292.02C51.468 292.02 56.4314 287.239 56.4314 280.896C56.4314 274.554 51.468 269.81 44.8371 269.81C38.2063 269.81 33.2429 274.554 33.2429 280.896C33.2429 287.239 38.2063 292.02 44.8371 292.02ZM44.8371 286.652C41.5022 286.652 39.1182 284.321 39.1182 280.896C39.1182 277.51 41.5022 275.141 44.8371 275.141C48.1721 275.141 50.5561 277.51 50.5561 280.896C50.5561 284.321 48.1721 286.652 44.8371 286.652Z" fill="white"/>
<path d="M70.5662 292.02C76.1679 292.02 80.5755 288.443 81.5655 283.151H75.7293C74.7393 285.41 72.9111 286.652 70.5662 286.652C67.4701 286.652 65.047 284.125 65.047 280.896C65.047 277.629 67.431 275.141 70.5662 275.141C72.872 275.141 74.8174 276.383 75.7293 278.446H81.4874C80.4539 273.273 76.1679 269.81 70.6053 269.81C64.096 269.81 59.1718 274.554 59.1718 280.858C59.1718 287.158 64.096 292.02 70.5662 292.02Z" fill="white"/>
<path d="M85.4174 267.594H91.1754V262.34H85.4174V267.594ZM85.4174 291.399H91.2145V270.393H85.4174V291.399Z" fill="white"/>
<path d="M114.248 270.393L113.648 272.375C111.785 270.78 109.362 269.81 106.583 269.81C100.148 269.81 95.345 274.554 95.345 280.896C95.345 287.239 100.148 292.02 106.583 292.02C109.323 292.02 111.703 291.089 113.531 289.494L114.048 291.399H118.573V270.393H114.248ZM107.061 286.652C103.682 286.652 101.22 284.163 101.22 280.896C101.22 277.591 103.682 275.141 107.061 275.141C110.435 275.141 112.897 277.591 112.897 280.896C112.897 284.202 110.435 286.652 107.061 286.652Z" fill="white"/>
<path d="M124.172 291.399H129.969V262.847H124.172V291.399Z" fill="white"/>
<path d="M145.138 291.944C150.896 291.944 155.659 289.102 155.659 283.232C155.659 277.123 150.34 275.838 146.132 274.788C143.153 274.09 140.769 273.507 140.769 271.601C140.769 269.81 142.715 268.994 144.66 268.994C146.927 268.994 148.911 270.083 148.911 272.456H154.826C154.826 267.007 151.213 263.663 144.821 263.663C138.668 263.663 134.733 266.62 134.733 271.831C134.733 277.706 139.818 278.914 144.026 279.922C147.044 280.586 149.584 281.169 149.584 283.308C149.584 285.329 147.361 286.499 145.099 286.499C142.636 286.499 140.413 285.214 140.413 282.606H134.338C134.338 288.443 138.746 291.944 145.138 291.944Z" fill="white"/>
<path d="M174.919 270.393L169.556 283.347L163.841 270.393H157.527L166.62 289.804L166.538 289.962C165.231 293.148 164.514 293.888 161.696 293.888H159.711V298.984H162.091C166.898 298.984 169.161 296.844 171.74 291.127L181.072 270.393H174.919Z" fill="white"/>
<path d="M196.2 269.925C193.303 269.925 190.724 271.133 189.095 273.001L187.984 270.393H184.01V291.399H189.808V280.39C189.808 277.008 191.636 274.907 194.615 274.907C197.116 274.907 198.345 276.421 198.345 279.612V291.399H204.142V278.68C204.142 273.35 201.085 269.925 196.2 269.925Z" fill="white"/>
<path d="M219.429 292.02C225.03 292.02 229.438 288.443 230.428 283.151H224.592C223.602 285.41 221.773 286.652 219.429 286.652C216.332 286.652 213.909 284.125 213.909 280.896C213.909 277.629 216.293 275.141 219.429 275.141C221.734 275.141 223.68 276.383 224.592 278.446H230.35C229.316 273.273 225.03 269.81 219.468 269.81C212.958 269.81 208.034 274.554 208.034 280.858C208.034 287.158 212.958 292.02 219.429 292.02Z" fill="white"/>
<path d="M14.7209 316.465C16.3319 316.465 17.665 315.669 17.665 314.027C17.665 312.317 16.1756 311.956 14.9988 311.662C14.165 311.466 13.4963 311.305 13.4963 310.769C13.4963 310.271 14.0391 310.041 14.5863 310.041C15.2202 310.041 15.7761 310.343 15.7761 311.011H17.4305C17.4305 309.484 16.4187 308.548 14.6297 308.548C12.9057 308.548 11.8071 309.378 11.8071 310.837C11.8071 312.479 13.2314 312.815 14.4082 313.1C15.2506 313.283 15.9628 313.449 15.9628 314.049C15.9628 314.614 15.3418 314.942 14.7078 314.942C14.0174 314.942 13.3964 314.58 13.3964 313.853H11.6942C11.6942 315.482 12.9275 316.465 14.7209 316.465Z" fill="white"/>
<path d="M22.931 314.789V313.219H25.632V311.73H22.931V310.216H25.9229V308.689H21.2548V316.312H26.0445V314.789H22.931Z" fill="white"/>
<path d="M34.8557 316.312H36.6925L33.5443 308.689H31.9549L28.8979 316.312H30.6913L31.2211 314.874H34.3129L34.8557 316.312ZM32.767 310.705L33.7918 313.436H31.7465L32.767 310.705Z" fill="white"/>
<path d="M49.4378 316.312L48.2393 308.689H46.5501L44.4353 313.372L42.3249 308.689H40.6488L39.4242 316.312H41.1351L41.9037 311.347L44.2269 316.299H44.6351L46.9583 311.347L47.7269 316.312H49.4378Z" fill="white"/>
<path d="M54.6609 314.789V308.689H52.9847V316.312H57.6528V314.789H54.6609Z" fill="white"/>
<path d="M62.6961 314.789V313.219H65.3971V311.73H62.6961V310.216H65.688V308.689H61.02V316.312H65.8096V314.789H62.6961Z" fill="white"/>
<path d="M72.0459 316.465C73.6569 316.465 74.99 315.669 74.99 314.027C74.99 312.317 73.5006 311.956 72.3238 311.662C71.4901 311.466 70.8213 311.305 70.8213 310.769C70.8213 310.271 71.3641 310.041 71.9113 310.041C72.5453 310.041 73.1011 310.343 73.1011 311.011H74.7555C74.7555 309.484 73.7438 308.548 71.9547 308.548C70.2308 308.548 69.1321 309.378 69.1321 310.837C69.1321 312.479 70.5564 312.815 71.7332 313.1C72.5757 313.283 73.2878 313.449 73.2878 314.049C73.2878 314.614 72.6668 314.942 72.0329 314.942C71.3424 314.942 70.7214 314.58 70.7214 313.853H69.0192C69.0192 315.482 70.2525 316.465 72.0459 316.465Z" fill="white"/>
<path d="M81.1592 316.465C82.7702 316.465 84.1033 315.669 84.1033 314.027C84.1033 312.317 82.6139 311.956 81.4371 311.662C80.6033 311.466 79.9346 311.305 79.9346 310.769C79.9346 310.271 80.4774 310.041 81.0245 310.041C81.6585 310.041 82.2144 310.343 82.2144 311.011H83.8688C83.8688 309.484 82.857 308.548 81.068 308.548C79.344 308.548 78.2454 309.378 78.2454 310.837C78.2454 312.479 79.6697 312.815 80.8465 313.1C81.6889 313.283 82.4011 313.449 82.4011 314.049C82.4011 314.614 81.7801 314.942 81.1461 314.942C80.4557 314.942 79.8347 314.58 79.8347 313.853H78.1325C78.1325 315.482 79.3657 316.465 81.1592 316.465Z" fill="white"/>
<path d="M96.1483 316.486C98.072 316.486 99.5831 315.223 99.9392 313.338H98.237C97.9591 314.3 97.1731 314.908 96.1483 314.908C94.8282 314.908 93.8381 313.883 93.8381 312.513C93.8381 311.139 94.8282 310.105 96.1483 310.105C97.1297 310.105 97.907 310.671 98.2283 311.564H99.9045C99.5484 309.756 98.0372 308.527 96.1483 308.527C93.8598 308.527 92.1272 310.246 92.1272 312.513C92.1272 314.768 93.8598 316.486 96.1483 316.486Z" fill="white"/>
<path d="M107.073 316.486C109.444 316.486 111.211 314.776 111.211 312.5C111.211 310.237 109.444 308.527 107.073 308.527C104.697 308.527 102.917 310.246 102.917 312.5C102.917 314.768 104.697 316.486 107.073 316.486ZM107.073 314.929C105.687 314.929 104.628 313.874 104.628 312.5C104.628 311.13 105.687 310.084 107.073 310.084C108.462 310.084 109.496 311.118 109.496 312.5C109.496 313.883 108.462 314.929 107.073 314.929Z" fill="white"/>
<path d="M119.691 308.689V313.338L116.278 308.689H114.766V316.312H116.412V311.556L119.934 316.312H121.345V308.689H119.691Z" fill="white"/>
<path d="M130.712 308.689H124.702V310.224H126.869V316.312H128.545V310.224H130.712V308.689Z" fill="white"/>
<path d="M135.758 314.789V313.219H138.459V311.73H135.758V310.216H138.75V308.689H134.082V316.312H138.872V314.789H135.758Z" fill="white"/>
<path d="M147.453 308.689V313.338L144.04 308.689H142.529V316.312H144.174V311.556L147.696 316.312H149.107V308.689H147.453Z" fill="white"/>
<path d="M158.474 308.689H152.464V310.224H154.631V316.312H156.307V310.224H158.474V308.689Z" fill="white"/>
<path d="M169.314 316.465C170.925 316.465 172.258 315.669 172.258 314.027C172.258 312.317 170.769 311.956 169.592 311.662C168.758 311.466 168.089 311.305 168.089 310.769C168.089 310.271 168.632 310.041 169.179 310.041C169.813 310.041 170.369 310.343 170.369 311.011H172.024C172.024 309.484 171.012 308.548 169.223 308.548C167.499 308.548 166.4 309.378 166.4 310.837C166.4 312.479 167.824 312.815 169.001 313.1C169.844 313.283 170.556 313.449 170.556 314.049C170.556 314.614 169.935 314.942 169.301 314.942C168.61 314.942 167.989 314.58 167.989 313.853H166.287C166.287 315.482 167.521 316.465 169.314 316.465Z" fill="white"/>
<path d="M180.459 308.689V311.628H177.524V308.689H175.848V316.312H177.524V313.164H180.459V316.312H182.136V308.689H180.459Z" fill="white"/>
<path d="M191.316 316.312H193.153L190.004 308.689H188.415L185.358 316.312H187.152L187.681 314.874H190.773L191.316 316.312ZM189.227 310.705L190.252 313.436H188.207L189.227 310.705Z" fill="white"/>
<path d="M200.652 316.312H202.533L200.809 313.436C201.677 313.023 202.233 312.219 202.233 311.216C202.233 309.748 201.065 308.689 199.506 308.689H196.375V316.312H198.051V313.721H199.128L200.652 316.312ZM198.051 310.216H199.397C200.109 310.216 200.518 310.641 200.518 311.207C200.518 311.781 200.109 312.198 199.397 312.198H198.051V310.216Z" fill="white"/>
<path d="M205.955 316.312H207.631V308.689H205.955V316.312Z" fill="white"/>
<path d="M216.581 308.689V313.338L213.168 308.689H211.657V316.312H213.302V311.556L216.824 316.312H218.235V308.689H216.581Z" fill="white"/>
<path d="M225.657 312.339V313.602H227.993C227.702 314.385 226.825 314.908 225.826 314.908C224.424 314.908 223.503 313.93 223.503 312.513C223.503 311.088 224.45 310.105 225.826 310.105C226.803 310.105 227.624 310.616 227.958 311.433H229.695C229.326 309.727 227.728 308.527 225.791 308.527C223.49 308.527 221.792 310.237 221.792 312.513C221.792 314.797 223.538 316.486 225.826 316.486C228.158 316.486 229.795 314.721 229.795 312.339H225.657Z" fill="white"/>
</svg>
